<svg xmlns="http://www.w3.org/2000/svg" xmlns:xlink="http://www.w3.org/1999/xlink" viewBox="0 0 566.96 254.25"><defs><style>.cls-1{fill:none;}.cls-2{fill:#fff;}.cls-3{clip-path:url(#clip-path);}.cls-4{fill:#f6b700;}.cls-5{fill:#395eac;}</style><clipPath id="clip-path"><rect class="cls-1" width="566.96" height="254.25"/></clipPath></defs><g id="Ebene_2" data-name="Ebene 2"><g id="Ebene_1-2" data-name="Ebene 1"><rect class="cls-2" width="566.96" height="254.25"/><g class="cls-3"><path class="cls-4" d="M490.57,186.83a15.53,15.53,0,0,1-3-1.21l-1.74,4.89a13.32,13.32,0,0,0,1.36.67,14.44,14.44,0,0,0,1.94.67,20.08,20.08,0,0,0,2.58.53,21.57,21.57,0,0,0,3.27.22c3.6,0,6.3-.7,8.08-2.11a7.09,7.09,0,0,0,2.68-5.93,9.68,9.68,0,0,0-.51-3.35,6.51,6.51,0,0,0-1.56-2.41A9.81,9.81,0,0,0,501,177c-1.05-.51-2.28-1-3.7-1.56-.69-.24-1.31-.47-1.88-.69A8.29,8.29,0,0,1,494,174a3.36,3.36,0,0,1-1-.92,2.18,2.18,0,0,1-.35-1.27,2.07,2.07,0,0,1,1-1.87,6.16,6.16,0,0,1,3.18-.61,11.13,11.13,0,0,1,3.37.45,16,16,0,0,1,2.54,1.05l1.77-4.85a16.19,16.19,0,0,0-3.31-1.3,16.78,16.78,0,0,0-4.77-.6,14.22,14.22,0,0,0-4.18.58A9.22,9.22,0,0,0,489,166.3a7.17,7.17,0,0,0-2,2.59,7.85,7.85,0,0,0-.71,3.41,7,7,0,0,0,.67,3.21,7.28,7.28,0,0,0,1.73,2.25,9.78,9.78,0,0,0,2.41,1.53c.89.41,1.78.77,2.68,1.09a17.87,17.87,0,0,1,4.33,1.91,2.64,2.64,0,0,1,1.27,2.23,3.17,3.17,0,0,1-.2,1.14,2,2,0,0,1-.71.89,3.9,3.9,0,0,1-1.36.59,8.61,8.61,0,0,1-2.15.22,15.91,15.91,0,0,1-4.4-.53m-15.27,5.22V164.73h-6.11v16.12q-1.43-2.13-3-4.43T462.9,172c-1.09-1.43-2.17-2.78-3.22-4s-2-2.33-2.88-3.19h-5v27.32h6.07v-17.9a96.21,96.21,0,0,1,6.54,8.63q3.09,4.58,5.72,9.27ZM439.69,172.2a12.87,12.87,0,0,0-2.91-4.48,12.09,12.09,0,0,0-4.34-2.72,15.42,15.42,0,0,0-5.28-.91A15,15,0,0,0,422,165a12.36,12.36,0,0,0-4.34,2.72,13.14,13.14,0,0,0-3,4.48,15.91,15.91,0,0,0-1.11,6.17,16.54,16.54,0,0,0,1.07,6.17,12.54,12.54,0,0,0,2.92,4.45,12,12,0,0,0,4.33,2.7,15.2,15.2,0,0,0,5.29.91,15.59,15.59,0,0,0,5.38-.91,11.52,11.52,0,0,0,4.31-2.7,12.55,12.55,0,0,0,2.86-4.45,16.76,16.76,0,0,0,1.05-6.17,16.51,16.51,0,0,0-1.07-6.17m-19.3,2.56a8.49,8.49,0,0,1,1.42-2.8,6.55,6.55,0,0,1,2.27-1.81,6.87,6.87,0,0,1,3.08-.65,7.17,7.17,0,0,1,3,.63,6.28,6.28,0,0,1,2.29,1.79,8.3,8.3,0,0,1,1.42,2.8,12.59,12.59,0,0,1,.49,3.65,12.29,12.29,0,0,1-.49,3.62,8.35,8.35,0,0,1-1.42,2.79,6.28,6.28,0,0,1-2.29,1.79,7.77,7.77,0,0,1-6.13,0,6.39,6.39,0,0,1-2.27-1.79,8.53,8.53,0,0,1-1.42-2.79,12.63,12.63,0,0,1-.49-3.62,12.76,12.76,0,0,1,.49-3.61m-24,17.29h6.15V164.73h-6.15Zm-32.49-27.32V170h8.25v22.08h6.15V170h8.24v-5.24Zm-15.69,27.08a9.22,9.22,0,0,0,3.51-2.22,8.93,8.93,0,0,0,2.05-3.46,13.78,13.78,0,0,0,.67-4.41v-17h-6.15v16.48c0,2.2-.46,3.77-1.4,4.69a5,5,0,0,1-3.64,1.38,6.22,6.22,0,0,1-2-.32,3.59,3.59,0,0,1-1.58-1,5.18,5.18,0,0,1-1-1.89,9.32,9.32,0,0,1-.37-2.82V164.73h-6.15v17a14,14,0,0,0,.65,4.4,9,9,0,0,0,2,3.43,9.3,9.3,0,0,0,3.45,2.24,13.73,13.73,0,0,0,5,.81,14.42,14.42,0,0,0,5-.79m-37.29-5v-22h-6.16v27.32H323v-5.28ZM292.63,172.2a12.75,12.75,0,0,0-2.92-4.48,12.05,12.05,0,0,0-4.33-2.72,15.43,15.43,0,0,0-5.29-.91,15,15,0,0,0-5.18.91,12.36,12.36,0,0,0-4.34,2.72,13.16,13.16,0,0,0-3,4.48,16.1,16.1,0,0,0-1.1,6.17,16.54,16.54,0,0,0,1.07,6.17,12.52,12.52,0,0,0,2.91,4.45,12,12,0,0,0,4.34,2.7,15.14,15.14,0,0,0,5.28.91,15.6,15.6,0,0,0,5.39-.91,11.68,11.68,0,0,0,4.31-2.7,12.69,12.69,0,0,0,2.86-4.45,16.76,16.76,0,0,0,1-6.17,16.51,16.51,0,0,0-1.06-6.17m-19.3,2.56a8.3,8.3,0,0,1,1.42-2.8,6.46,6.46,0,0,1,2.27-1.81,6.86,6.86,0,0,1,3.07-.65,7.22,7.22,0,0,1,3.06.63,6.28,6.28,0,0,1,2.29,1.79,8.29,8.29,0,0,1,1.41,2.8,12.58,12.58,0,0,1,.5,3.65,12.28,12.28,0,0,1-.5,3.62,8.33,8.33,0,0,1-1.41,2.79,6.28,6.28,0,0,1-2.29,1.79,7.22,7.22,0,0,1-3.06.63,7.14,7.14,0,0,1-3.07-.63,6.3,6.3,0,0,1-2.27-1.79,8.35,8.35,0,0,1-1.42-2.79,13.58,13.58,0,0,1,0-7.23m-31.46,12.07a15.65,15.65,0,0,1-3-1.21l-1.73,4.89a13.32,13.32,0,0,0,1.36.67,14.26,14.26,0,0,0,1.93.67,20.45,20.45,0,0,0,2.58.53,21.66,21.66,0,0,0,3.27.22q5.4,0,8.09-2.11a7.12,7.12,0,0,0,2.68-5.93,9.68,9.68,0,0,0-.51-3.35A6.77,6.77,0,0,0,255,178.8a10,10,0,0,0-2.62-1.79c-1.06-.51-2.29-1-3.71-1.56-.68-.24-1.31-.47-1.87-.69a8.07,8.07,0,0,1-1.5-.75,3.49,3.49,0,0,1-1-.92,2.26,2.26,0,0,1-.35-1.27,2.07,2.07,0,0,1,1-1.87,6.2,6.2,0,0,1,3.18-.61,11.09,11.09,0,0,1,3.37.45,16,16,0,0,1,2.54,1.05l1.78-4.85a16.42,16.42,0,0,0-3.31-1.3,16.88,16.88,0,0,0-4.77-.6,14.12,14.12,0,0,0-4.18.58,9.18,9.18,0,0,0-3.16,1.63,7.17,7.17,0,0,0-2,2.59,8,8,0,0,0-.71,3.41,7,7,0,0,0,.67,3.21,7.46,7.46,0,0,0,1.74,2.25,9.91,9.91,0,0,0,2.4,1.53c.89.41,1.79.77,2.68,1.09a18,18,0,0,1,4.34,1.91,2.65,2.65,0,0,1,1.26,2.23,3.17,3.17,0,0,1-.2,1.14,1.93,1.93,0,0,1-.71.89,3.82,3.82,0,0,1-1.36.59,8.56,8.56,0,0,1-2.15.22,15.78,15.78,0,0,1-4.39-.53M211.29,172a11.06,11.06,0,0,0-3.15-4.34,13.08,13.08,0,0,0-4.91-2.48,23.79,23.79,0,0,0-6.37-.79c-1.1,0-2.42.05-4,.14a36.44,36.44,0,0,0-4.44.53v26.61a32.82,32.82,0,0,0,4.34.58c1.47.09,2.76.13,3.86.13a23.3,23.3,0,0,0,6.55-.86,13.45,13.45,0,0,0,4.95-2.61,11.37,11.37,0,0,0,3.13-4.37,15.91,15.91,0,0,0,1.11-6.19,16.36,16.36,0,0,0-1.11-6.35m-16.68-2.25c.4-.05.82-.08,1.27-.1l1.3,0q4.6,0,6.74,2.21c1.42,1.48,2.13,3.64,2.13,6.51a8.88,8.88,0,0,1-2.23,6.42c-1.48,1.56-3.76,2.33-6.84,2.33l-1.36,0c-.38,0-.72,0-1-.06Zm-24.2,22a9.22,9.22,0,0,0,3.51-2.22,9,9,0,0,0,2.05-3.46,14.07,14.07,0,0,0,.67-4.41v-17h-6.15v16.48c0,2.2-.47,3.77-1.4,4.69a5,5,0,0,1-3.65,1.38,6.26,6.26,0,0,1-2-.32,3.65,3.65,0,0,1-1.58-1,5.31,5.31,0,0,1-1-1.89,9.29,9.29,0,0,1-.38-2.82V164.73h-6.15v17a14.26,14.26,0,0,0,.65,4.4,8.78,8.78,0,0,0,5.46,5.67,13.73,13.73,0,0,0,5,.81,14.44,14.44,0,0,0,5-.79M142.57,172.2a12.75,12.75,0,0,0-2.92-4.48,12.05,12.05,0,0,0-4.33-2.72,15.43,15.43,0,0,0-5.29-.91,15,15,0,0,0-5.18.91,12.36,12.36,0,0,0-4.34,2.72,13.16,13.16,0,0,0-3,4.48,16.1,16.1,0,0,0-1.1,6.17,16.54,16.54,0,0,0,1.07,6.17,12.65,12.65,0,0,0,2.91,4.45,12,12,0,0,0,4.34,2.7,15.18,15.18,0,0,0,5.28.91,15.5,15.5,0,0,0,5.38-.91,11.63,11.63,0,0,0,4.32-2.7,12.55,12.55,0,0,0,2.86-4.45,16.76,16.76,0,0,0,1-6.17,16.51,16.51,0,0,0-1.07-6.17m-19.3,2.56a8.3,8.3,0,0,1,1.42-2.8,6.46,6.46,0,0,1,2.27-1.81,6.86,6.86,0,0,1,3.07-.65,7.22,7.22,0,0,1,3.06.63,6.28,6.28,0,0,1,2.29,1.79,8.49,8.49,0,0,1,1.42,2.8,12.94,12.94,0,0,1,.49,3.65,12.63,12.63,0,0,1-.49,3.62,8.53,8.53,0,0,1-1.42,2.79,6.28,6.28,0,0,1-2.29,1.79,7.22,7.22,0,0,1-3.06.63,7.14,7.14,0,0,1-3.07-.63,6.3,6.3,0,0,1-2.27-1.79,8.35,8.35,0,0,1-1.42-2.79,13.58,13.58,0,0,1,0-7.23m-26.83,12v-22H90.29v27.32h18.26v-5.28ZM76.77,192a14.16,14.16,0,0,0,3.66-1.42l-1.69-4.93-1.14.51a10.34,10.34,0,0,1-1.46.5,18.34,18.34,0,0,1-1.9.37,15.82,15.82,0,0,1-2.4.16,8.64,8.64,0,0,1-3.63-.69,6.33,6.33,0,0,1-2.42-1.87,7.38,7.38,0,0,1-1.34-2.82,14.17,14.17,0,0,1-.42-3.53,11.31,11.31,0,0,1,.63-4,7.4,7.4,0,0,1,1.68-2.7,6.17,6.17,0,0,1,2.4-1.52,8.33,8.33,0,0,1,2.78-.47,13.9,13.9,0,0,1,3.81.47,15.15,15.15,0,0,1,2.94,1.14l1.77-5c-.21-.13-.55-.31-1-.55a13.71,13.71,0,0,0-1.77-.69,21.2,21.2,0,0,0-2.48-.59,18,18,0,0,0-3.16-.26A16,16,0,0,0,66,165a12.14,12.14,0,0,0-4.41,2.78,12.93,12.93,0,0,0-2.92,4.5,16.16,16.16,0,0,0-1.07,6.05q0,6.82,3.49,10.53t10.16,3.7a21.45,21.45,0,0,0,5.48-.63"/><path class="cls-5" d="M60.4,140.35H71.68V75.56h.23l35.67,64.79H122V61.57H110.74V125h-.22L75.75,61.57H60.4Zm124.72-13c-2.59,2.15-10.72,5.76-17.72,5.76a18.84,18.84,0,0,1-19-19.19h41.09c0-18.51-6.21-32.51-25.4-32.51-16.25,0-27,12.08-27,29.12,0,18.74,9.37,31.16,29.8,31.16,9.49,0,14.11-2.26,18.17-3.72ZM148.44,106c.79-7.45,5.08-16,15.46-16,9.15,0,14.34,7.22,14.34,16Zm85.9-23.25H219.1V61.62H208.49V82.79h-13v8.58h13V125c0,11.52,6.77,16.71,17.72,16.71a33.11,33.11,0,0,0,9-1.58v-9a13.07,13.07,0,0,1-7.22,2c-4.85,0-8.92-3.61-8.92-10.27V91.37h15.24ZM264.93,71.5h9.6c7,0,17.38,3.61,17.38,13.54,0,10.39-8.81,13.89-15.8,13.89H264.93Zm-11.29,68.85h11.29V108.86H276c14.23,0,27.88-6.21,27.88-23.7,0-18-13.43-23.59-29.57-23.59H253.64Zm61.52,0h10.61V61.62H315.16Zm31.61-44.47A27.07,27.07,0,0,1,363.47,90c10.62,0,14.23,5.08,14.23,15-4.18-.22-7.11-.22-11.29-.22-11,0-26.75,4.51-26.75,19,0,12.53,8.69,18,21.1,18a21.36,21.36,0,0,0,17.84-8.81h.23v7.45h9.93a92.29,92.29,0,0,1-.45-11.28V105.25c0-15.69-6.66-23.82-23.14-23.82a36.69,36.69,0,0,0-19,5.42ZM377.7,118c0,8.58-5.53,15.12-16,15.12-4.86,0-10.73-3.27-10.73-9.37,0-10.16,14.23-11.06,20-11.06,2.26,0,4.52.22,6.78.22Zm27.43,22.34h10.61V113.72c0-14,5.41-23.71,17.49-23.71,9.26.56,12.19,7.11,12.19,20.54v29.8H456v-34.2c0-15.46-6.66-24.72-21.56-24.72-8,0-15.7,3.95-18.86,10.5h-.22V82.79H405.13Zm65.24-1.8c4.85,2.59,10.39,3.16,15.8,3.16,10.28,0,20.1-5.64,20.1-18,0-18.4-24.95-15-24.95-26.75,0-4.74,4.74-7,10.16-7,2.48,0,8.8,1.47,11.17,2.93l.91-9.25a44.38,44.38,0,0,0-13.21-2.26C479,81.43,470,87.19,470,99.15c0,16.15,25,15.24,25,25.74,0,6.21-6,8.24-10.84,8.24a28.33,28.33,0,0,1-13.21-4.06Z"/><path class="cls-5" d="M519.92,68.64h1.5V62.71h2.86l3.93,5.93H530l-3.93-5.93A3.58,3.58,0,0,0,529.38,59c0-2.39-1.3-3.69-4.31-3.69h-5.15Zm1.5-12h3.32c1.6,0,3.14.49,3.14,2.32s-1.37,2.36-3.14,2.36h-3.32Zm-7,5.3a10,10,0,1,1,10,10.16,10.05,10.05,0,0,1-10-10.16m-1.63,0A11.66,11.66,0,1,0,524.47,50.3,11.63,11.63,0,0,0,512.82,62"/></g></g></g></svg>